<?xml version="1.0" encoding="UTF-8"?>
<svg version="1.1" xmlns="http://www.w3.org/2000/svg" width="267" height="189">
<path d="M0 0 C88.11 0 176.22 0 267 0 C267 62.37 267 124.74 267 189 C178.89 189 90.78 189 0 189 C0 126.63 0 64.26 0 0 Z " fill="#FDFDFE" transform="translate(0,0)"/>
<path d="M0 0 C1.04623504 0.00092179 2.09247007 0.00184359 3.1704092 0.00279331 C4.96468601 0.00073132 4.96468601 0.00073132 6.79521084 -0.00137234 C8.13279653 0.00216726 9.47038198 0.00580208 10.80796719 0.00952244 C12.20711166 0.00980431 13.60625627 0.00964658 15.00540066 0.00907993 C18.81515014 0.00879195 22.62486841 0.01468885 26.43461061 0.02165389 C30.41179863 0.02788724 34.38898731 0.02849121 38.36617947 0.0296793 C45.90267094 0.03279267 53.43914798 0.04100614 60.97563308 0.05102879 C69.55348383 0.06218974 78.13133525 0.06770033 86.70919144 0.07272422 C104.35923267 0.08318875 122.00925409 0.1015343 139.65928555 0.12304783 C139.65928555 13.98304783 139.65928555 27.84304783 139.65928555 42.12304783 C136.02928555 42.12304783 132.39928555 42.12304783 128.65928555 42.12304783 C127.10511193 33.13104331 125.86728828 24.18306834 124.65928555 15.12304783 C91.49428555 14.62804783 91.49428555 14.62804783 57.65928555 14.12304783 C57.65928555 34.58304783 57.65928555 55.04304783 57.65928555 76.12304783 C72.17928555 75.79304783 86.69928555 75.46304783 101.65928555 75.12304783 C102.97928555 69.18304783 104.29928555 63.24304783 105.65928555 57.12304783 C109.28928555 57.12304783 112.91928555 57.12304783 116.65928555 57.12304783 C116.65928555 73.95304783 116.65928555 90.78304783 116.65928555 108.12304783 C113.02928555 108.12304783 109.39928555 108.12304783 105.65928555 108.12304783 C105.1545007 105.70729176 104.65530913 103.29060422 104.15928555 100.87304783 C104.01619961 100.19113377 103.87311367 99.5092197 103.7256918 98.80664158 C103.04677506 95.47671661 102.65928555 92.53972231 102.65928555 89.12304783 C87.80928555 89.12304783 72.95928555 89.12304783 57.65928555 89.12304783 C57.65928555 110.57304783 57.65928555 132.02304783 57.65928555 154.12304783 C82.40928555 153.79304783 107.15928555 153.46304783 132.65928555 153.12304783 C132.98928555 150.48304783 133.31928555 147.84304783 133.65928555 145.12304783 C134.0143444 143.2758074 134.39701937 141.4335155 134.81553555 139.59961033 C135.03338711 138.64183689 135.25123867 137.68406345 135.4756918 136.69726658 C135.70127773 135.72402439 135.92686367 134.7507822 136.15928555 133.74804783 C136.38487148 132.75160252 136.61045742 131.7551572 136.8428793 130.72851658 C138.5255332 123.39055253 138.5255332 123.39055253 139.65928555 121.12304783 C143.28928555 121.12304783 146.91928555 121.12304783 150.65928555 121.12304783 C149.99928555 136.63304783 149.33928555 152.14304783 148.65928555 168.12304783 C98.49928555 168.12304783 48.33928555 168.12304783 -3.34071445 168.12304783 C-3.34071445 165.15304783 -3.34071445 162.18304783 -3.34071445 159.12304783 C-0.98813101 158.61438114 1.36589959 158.11598532 3.72178555 157.62304783 C4.37856289 157.47996189 5.03534023 157.33687595 5.71201992 157.18945408 C6.36621914 157.05410252 7.02041836 156.91875095 7.6944418 156.77929783 C8.28620205 156.65361423 8.8779623 156.52793064 9.48765469 156.39843845 C12.5219422 156.01365191 15.60069741 156.12304783 18.65928555 156.12304783 C18.65928555 108.60304783 18.65928555 61.08304783 18.65928555 12.12304783 C13.04928555 11.46304783 7.43928555 10.80304783 1.65928555 10.12304783 C0.00928555 9.79304783 -1.64071445 9.46304783 -3.34071445 9.12304783 C-3.4383707 2.97070408 -3.4383707 2.97070408 -3.34071445 1.12304783 C-2.34071445 0.12304783 -2.34071445 0.12304783 0 0 Z " fill="#272985" transform="translate(9.340714454650879,8.876952171325684)"/>
<path d="M0 0 C13.86 0 27.72 0 42 0 C42 31.02 42 62.04 42 94 C44.97 94.33 47.94 94.66 51 95 C51.99 95.495 51.99 95.495 53 96 C53 98.31 53 100.62 53 103 C35.51 103 18.02 103 0 103 C0 100.69 0 98.38 0 96 C4.0597302 94.48940272 6.54610667 94 11 94 C11 65.95 11 37.9 11 9 C8.36 8.67 5.72 8.34 3 8 C2.01 7.67 1.02 7.34 0 7 C0 4.69 0 2.38 0 0 Z " fill="#262985" transform="translate(204,74)"/>
<path d="M0 0 C2.19570534 1.86646466 3.81431407 3.78261917 5.53149414 6.09179688 C7.33751949 8.43857894 9.39109096 9.53744712 11.9375 11 C14.75658544 13.33171813 15.86329497 15.06703036 16.39550781 18.69921875 C16.79074128 25.80900522 16.48831881 32.9014305 16 40 C15.01 40.495 15.01 40.495 14 41 C14 40.34 14 39.68 14 39 C9.2016506 39.44957508 7.04023971 41.39229327 3.6875 44.75 C2.80449219 45.61109375 1.92148438 46.4721875 1.01171875 47.359375 C-1.27335123 50.35880667 -1.19520566 51.37486035 -1 55 C-23.24378808 57.69445812 -23.24378808 57.69445812 -32.06005859 50.85400391 C-38.88375819 44.3325875 -41.58255067 37.46865729 -41.9375 28.0625 C-41.62859218 18.22687487 -38.55572674 11.2679881 -31.40234375 4.52172852 C-22.94394858 -2.07004272 -10.13353973 -3.60062214 0 0 Z " fill="#7990CF" transform="translate(241,11)"/>
<path d="M0 0 C16.17 0 32.34 0 49 0 C49 24.09 49 48.18 49 73 C45.55387565 69.55387565 43.09208106 66.26911438 40.5625 62.1875 C38.11549347 58.29684516 35.67327337 54.4472023 32.9375 50.75 C31 48 31 48 31 46 C30.34 46 29.68 46 29 46 C27.51592013 43.90233924 26.15285034 41.81216733 24.8125 39.625 C23.99241441 38.31804976 23.17079228 37.01206243 22.34765625 35.70703125 C21.94434082 35.06588379 21.54102539 34.42473633 21.12548828 33.76416016 C19.72573062 31.57009316 18.25476132 29.43575971 16.75 27.3125 C13.16845812 22.24219368 9.60174799 17.16242499 6.0625 12.0625 C5.46985352 11.22050049 4.87720703 10.37850098 4.26660156 9.51098633 C3.71584961 8.7145874 3.16509766 7.91818848 2.59765625 7.09765625 C2.09758057 6.38101807 1.59750488 5.66437988 1.08227539 4.92602539 C0 3 0 3 0 0 Z " fill="#FB5F04" transform="translate(151,10)"/>
<path d="M0 0 C0.33 0.66 0.66 1.32 1 2 C1.66 2.33 2.32 2.66 3 3 C2.01 3 1.02 3 0 3 C0.33 9.6 0.66 16.2 1 23 C1.66 22.67 2.32 22.34 3 22 C3.33 15.73 3.66 9.46 4 3 C4.33 3 4.66 3 5 3 C4.99363525 3.56920166 4.98727051 4.13840332 4.98071289 4.72485352 C4.9719532 7.33869297 5.01684254 9.94906702 5.0625 12.5625 C5.05154297 13.45775391 5.04058594 14.35300781 5.02929688 15.27539062 C5.16170098 20.43915062 5.73700918 23.33958826 9.43359375 27.08984375 C11.26461831 28.70126948 12.8195588 29.9097794 15 31 C15 31.66 15 32.32 15 33 C15.66 33 16.32 33 17 33 C17 33.66 17 34.32 17 35 C23.27 35 29.54 35 36 35 C36.66 36.65 37.32 38.3 38 40 C15.73344172 42.69721634 15.73344172 42.69721634 6.94360352 35.8503418 C0.49932053 29.71528079 -1.74363343 24.31744315 -2.05078125 15.41015625 C-1.84103261 1.84103261 -1.84103261 1.84103261 0 0 Z " fill="#646D87" transform="translate(202,26)"/>
<path d="M0 0 C16.17 0 32.34 0 49 0 C49 24.09 49 48.18 49 73 C47.68 71.35 46.36 69.7 45 68 C45.66 68 46.32 68 47 68 C47 46.55 47 25.1 47 3 C32.81 3 18.62 3 4 3 C4.33 4.98 4.66 6.96 5 9 C2.28404014 5.8459821 1.03153759 4.12615036 0 0 Z " fill="#EC8A4F" transform="translate(151,10)"/>
<path d="M0 0 C1.61064206 1.36554436 3.21212175 2.74277862 4.77734375 4.16015625 C6.98315329 6.08953753 6.98315329 6.08953753 9.69140625 7.55859375 C13.13368988 9.83549544 14.89509853 11.40049393 17 15 C18.27054848 22.90485673 17.61212331 31.05275592 17 39 C16.01 39.495 16.01 39.495 15 40 C15 39.34 15 38.68 15 38 C13.68 37.34 12.36 36.68 11 36 C11.00902344 34.69804688 11.01804688 33.39609375 11.02734375 32.0546875 C10.99919278 30.32809477 10.96914465 28.60153224 10.9375 26.875 C10.94845703 26.0190625 10.95941406 25.163125 10.97070312 24.28125 C10.86459875 19.28789512 10.86459875 19.28789512 8.37939453 15.11425781 C6.48279529 13.49536135 6.48279529 13.49536135 4.49829102 12.16064453 C4.00385498 11.77763184 3.50941895 11.39461914 3 11 C3 10.34 3 9.68 3 9 C2.01 8.67 1.02 8.34 0 8 C0 7.34 0 6.68 0 6 C-0.66 6 -1.32 6 -2 6 C-1.125 1.125 -1.125 1.125 0 0 Z " fill="#636D8F" transform="translate(240,12)"/>
<path d="M0 0 C2 1 2 1 2.85546875 2.8125 C3 5 3 5 1.48828125 7 C0.77027344 7.66 0.05226562 8.32 -0.6875 9 C-1.39261719 9.66 -2.09773437 10.32 -2.82421875 11 C-5 13 -5 13 -7.22265625 14.640625 C-10.02273718 18.35765552 -9.67629485 22.21378322 -9.75 26.75 C-9.77964844 27.63816406 -9.80929688 28.52632812 -9.83984375 29.44140625 C-9.91036918 31.62769449 -9.96314637 33.81292768 -10 36 C-11.32 36.66 -12.64 37.32 -14 38 C-14.05830787 34.60423938 -14.09369946 31.2086085 -14.125 27.8125 C-14.14175781 26.85279297 -14.15851563 25.89308594 -14.17578125 24.90429688 C-14.18222656 23.97294922 -14.18867188 23.04160156 -14.1953125 22.08203125 C-14.20578613 21.22843018 -14.21625977 20.3748291 -14.22705078 19.49536133 C-13.82613125 15.08912636 -12.34119902 11.94733096 -9.1796875 8.88671875 C-8.64472656 8.36142578 -8.10976562 7.83613281 -7.55859375 7.29492188 C-7.00300781 6.76447266 -6.44742188 6.23402344 -5.875 5.6875 C-5.31167969 5.13771484 -4.74835938 4.58792969 -4.16796875 4.02148438 C-2.78537942 2.67404562 -1.39359084 1.33605727 0 0 Z " fill="#C0CDF1" transform="translate(216,12)"/>
<path d="M0 0 C1.43739513 -0.02712066 2.87493863 -0.04645067 4.3125 -0.0625 C5.51326172 -0.07990234 5.51326172 -0.07990234 6.73828125 -0.09765625 C9 0 9 0 12 1 C14.39490986 1.06970052 16.79167691 1.08448003 19.1875 1.0625 C20.45980469 1.05347656 21.73210937 1.04445313 23.04296875 1.03515625 C24.01878906 1.02355469 24.99460938 1.01195313 26 1 C25.47731534 3.76276177 24.89130413 6.3260876 24 9 C22.0625 8.6875 22.0625 8.6875 20 8 C19.67 7.01 19.34 6.02 19 5 C18.01 4.67 17.02 4.34 16 4 C16 5.65 16 7.3 16 9 C15.0925 8.814375 14.185 8.62875 13.25 8.4375 C10.14714806 7.81587232 10.14714806 7.81587232 7.75 8.5625 C6.88375 8.7790625 6.88375 8.7790625 6 9 C5.34 8.34 4.68 7.68 4 7 C4 5.68 4 4.36 4 3 C2.68 3 1.36 3 0 3 C0.57344937 5.86724686 0.8614515 6.8614515 3 9 C1.35 8.67 -0.3 8.34 -2 8 C-2 6.02 -2 4.04 -2 2 C-1.34 2 -0.68 2 0 2 C0 1.34 0 0.68 0 0 Z " fill="#934536" transform="translate(166,16)"/>
<path d="M0 0 C2 3 2 3 2 6 C-2.62623287 6.7419908 -7.04635247 7.11930052 -11.72973633 7.09765625 C-13.0241011 7.09435303 -14.31846588 7.0910498 -15.65205383 7.08764648 C-16.33339197 7.08352753 -17.01473011 7.07940857 -17.71671486 7.07516479 C-19.86435052 7.0623065 -22.01192387 7.05586253 -24.15959167 7.05102539 C-28.71058937 7.03965425 -33.26153492 7.02038103 -37.8125 7 C-43.10532439 6.97639611 -48.39812018 6.95603429 -53.69098473 6.94406128 C-55.80825568 6.93757286 -57.92543744 6.92507142 -60.04267883 6.91235352 C-61.32128281 6.90905029 -62.59988678 6.90574707 -63.91723633 6.90234375 C-65.61098137 6.89448853 -65.61098137 6.89448853 -67.33894348 6.88647461 C-69.97529161 6.8173608 -69.97529161 6.8173608 -72 8 C-72 7.34 -72 6.68 -72 6 C-72.99 6 -73.98 6 -75 6 C-75 5.34 -75 4.68 -75 4 C-50.25 3.67 -25.5 3.34 0 3 C0 2.01 0 1.02 0 0 Z " fill="#2A2B73" transform="translate(142,159)"/>
<path d="M0 0 C0.99 0 1.98 0 3 0 C2.67 1.32 2.34 2.64 2 4 C8.24795675 4.02527124 14.49590041 4.04283344 20.74389648 4.05493164 C22.87118014 4.05997298 24.99846031 4.06680591 27.12573242 4.07543945 C30.17627826 4.08751379 33.22677845 4.09323014 36.27734375 4.09765625 C37.23462875 4.10281754 38.19191376 4.10797882 39.1782074 4.11329651 C40.05904495 4.11337204 40.93988251 4.11344757 41.84741211 4.11352539 C42.62684677 4.115746 43.40628143 4.11796661 44.20933533 4.12025452 C46.02366535 4.19571386 46.02366535 4.19571386 47 3 C46.34 2.34 45.68 1.68 45 1 C47.475 1.495 47.475 1.495 50 2 C49.67 2.99 49.34 3.98 49 5 C49.99 5 50.98 5 52 5 C51.505 2.525 51.505 2.525 51 0 C51.66 0 52.32 0 53 0 C53 2.31 53 4.62 53 7 C35.51 7 18.02 7 0 7 C0 4.69 0 2.38 0 0 Z " fill="#23236C" transform="translate(204,170)"/>
<path d="M0 0 C0.99386719 0.02707031 1.98773438 0.05414063 3.01171875 0.08203125 C4.15060547 0.13423828 4.15060547 0.13423828 5.3125 0.1875 C5.3125 0.5175 5.3125 0.8475 5.3125 1.1875 C2.3425 1.1875 -0.6275 1.1875 -3.6875 1.1875 C-3.6875 1.8475 -3.6875 2.5075 -3.6875 3.1875 C-4.3475 3.1875 -5.0075 3.1875 -5.6875 3.1875 C-5.6875 5.1675 -5.6875 7.1475 -5.6875 9.1875 C-4.6975 9.1875 -3.7075 9.1875 -2.6875 9.1875 C-3.0175 7.5375 -3.3475 5.8875 -3.6875 4.1875 C-2.3675 4.1875 -1.0475 4.1875 0.3125 4.1875 C0.9725 5.8375 1.6325 7.4875 2.3125 9.1875 C3.9625 8.8575 5.6125 8.5275 7.3125 8.1875 C7.6425 8.8475 7.9725 9.5075 8.3125 10.1875 C5.74356162 11.47196919 3.54673663 11.51727144 0.6875 11.75 C-0.31539062 11.83378906 -1.31828125 11.91757812 -2.3515625 12.00390625 C-3.12242187 12.06449219 -3.89328125 12.12507813 -4.6875 12.1875 C-4.3575 13.1775 -4.0275 14.1675 -3.6875 15.1875 C-3.0275 15.1875 -2.3675 15.1875 -1.6875 15.1875 C-2.0175 16.8375 -2.3475 18.4875 -2.6875 20.1875 C-6.66853298 15.41026042 -10.15469209 10.29816313 -13.6875 5.1875 C-10.6875 3.1875 -10.6875 3.1875 -8.6875 3.1875 C-8.26855469 2.69636719 -7.84960938 2.20523437 -7.41796875 1.69921875 C-4.95807274 -0.44971975 -3.20759951 -0.11320939 0 0 Z " fill="#EE6414" transform="translate(169.6875,14.8125)"/>
<path d="M0 0 C2.19067383 0.35302734 2.19067383 0.35302734 4 1 C3.4409112 4.24271506 2.5867822 5.93057424 0 8 C-0.66 8 -1.32 8 -2 8 C-2.2475 8.5775 -2.495 9.155 -2.75 9.75 C-4.18299988 12.32939979 -5.78424676 14.06121592 -8 16 C-8.66 16 -9.32 16 -10 16 C-10 16.66 -10 17.32 -10 18 C-17.92 18 -25.84 18 -34 18 C-34 17.67 -34 17.34 -34 17 C-26.41 17 -18.82 17 -11 17 C-11.33 15.35 -11.66 13.7 -12 12 C-10.16498915 9.57934739 -8.48566516 7.69112495 -6.3125 5.625 C-5.76916016 5.06683594 -5.22582031 4.50867187 -4.66601562 3.93359375 C-3.05078125 2.3515625 -3.05078125 2.3515625 0 0 Z " fill="#C4CEE8" transform="translate(251,49)"/>
<path d="M0 0 C1.65 0 3.3 0 5 0 C4.01 0.495 4.01 0.495 3 1 C3 1.99 3 2.98 3 4 C3.66 4.33 4.32 4.66 5 5 C4.67 5.33 4.34 5.66 4 6 C34.195 6.495 34.195 6.495 65 7 C65 7.33 65 7.66 65 8 C43.55 8.33 22.1 8.66 0 9 C0 6.03 0 3.06 0 0 Z " fill="#292B7E" transform="translate(6,168)"/>
<path d="M0 0 C0.33 0 0.66 0 1 0 C0.88557539 1.60495567 0.75805306 3.20898119 0.625 4.8125 C0.55539063 5.70582031 0.48578125 6.59914063 0.4140625 7.51953125 C0 10 0 10 -2 13 C-4.625 13.6875 -4.625 13.6875 -7 14 C-7 13.34 -7 12.68 -7 12 C-7.86625 12.495 -7.86625 12.495 -8.75 13 C-11 14 -11 14 -15 14 C-15 13.34 -15 12.68 -15 12 C-13.68 12 -12.36 12 -11 12 C-11 10.35 -11 8.7 -11 7 C-9.0625 7.3125 -9.0625 7.3125 -7 8 C-6.67 8.99 -6.34 9.98 -6 11 C-5.01 11.33 -4.02 11.66 -3 12 C-2.855625 11.236875 -2.71125 10.47375 -2.5625 9.6875 C-2 7 -2 7 -1 4 C-8.92 4.495 -8.92 4.495 -17 5 C-16.34 4.01 -15.68 3.02 -15 2 C-11.77734375 1.5234375 -11.77734375 1.5234375 -7.9375 1.375 C-3.64898349 1.58681708 -3.64898349 1.58681708 0 0 Z " fill="#EC6216" transform="translate(193,13)"/>
<path d="M0 0 C0 6.93 0 13.86 0 21 C-1.32 20.67 -2.64 20.34 -4 20 C-4 13.73 -4 7.46 -4 1 C-2 0 -2 0 0 0 Z " fill="#131A2D" transform="translate(256,29)"/>
<path d="M0 0 C0.33 0 0.66 0 1 0 C0.99363525 0.56920166 0.98727051 1.13840332 0.98071289 1.72485352 C0.9719532 4.33869297 1.01684254 6.94906702 1.0625 9.5625 C1.05154297 10.45775391 1.04058594 11.35300781 1.02929688 12.27539062 C1.16170098 17.43915062 1.73700918 20.33958826 5.43359375 24.08984375 C7.26461831 25.70126948 8.8195588 26.9097794 11 28 C11 28.66 11 29.32 11 30 C11.66 30 12.32 30 13 30 C12.67 31.32 12.34 32.64 12 34 C11.01 33.67 10.02 33.34 9 33 C8.8453125 32.0409375 8.8453125 32.0409375 8.6875 31.0625 C8.460625 30.381875 8.23375 29.70125 8 29 C5.00384054 27.6954344 5.00384054 27.6954344 2 27 C2 26.01 2 25.02 2 24 C-0.475 23.01 -0.475 23.01 -3 22 C-3 21.34 -3 20.68 -3 20 C-2.34 19.67 -1.68 19.34 -1 19 C-0.67 12.73 -0.34 6.46 0 0 Z " fill="#5B6DA4" transform="translate(206,29)"/>
<path d="M0 0 C6.27 0 12.54 0 19 0 C19.33 1.32 19.66 2.64 20 4 C13.4 4 6.8 4 0 4 C0 2.68 0 1.36 0 0 Z " fill="#242D49" transform="translate(219,61)"/>
<path d="M0 0 C6.6 0 13.2 0 20 0 C19.67 1.32 19.34 2.64 19 4 C13.06 4 7.12 4 1 4 C0.67 2.68 0.34 1.36 0 0 Z " fill="#B9C8E6" transform="translate(219,12)"/>
<path d="M0 0 C4.6875 3.61328125 4.6875 3.61328125 6 5 C6 5.99 6 6.98 6 8 C6.66 8.33 7.32 8.66 8 9 C8 9.66 8 10.32 8 11 C8.66 11 9.32 11 10 11 C9.34 12.32 8.68 13.64 8 15 C6.2925002 13.71937515 4.62626404 12.38232443 3 11 C3 10.34 3 9.68 3 9 C2.01 8.67 1.02 8.34 0 8 C0 7.34 0 6.68 0 6 C-0.66 6 -1.32 6 -2 6 C-1.125 1.125 -1.125 1.125 0 0 Z " fill="#546496" transform="translate(240,12)"/>
<path d="M0 0 C15.84 0 31.68 0 48 0 C48 0.33 48 0.66 48 1 C33.48 1.33 18.96 1.66 4 2 C4.33 3.98 4.66 5.96 5 8 C2.74754119 5.31158141 1.11786042 3.35358125 0 0 Z " fill="#DF6318" transform="translate(151,11)"/>
<path d="M0 0 C0.66 0.33 1.32 0.66 2 1 C2.625 3.0625 2.625 3.0625 3 5 C-1.52084209 9.49335977 -4.54972485 11.73672346 -11 12 C-7.49102731 7.81576108 -3.91939465 3.80411834 0 0 Z " fill="#A8B4CC" transform="translate(216,12)"/>
<path d="M0 0 C0.99 0.33 1.98 0.66 3 1 C2.34 1 1.68 1 1 1 C1 2.98 1 4.96 1 7 C1.99 7 2.98 7 4 7 C3.67 5.35 3.34 3.7 3 2 C4.32 2 5.64 2 7 2 C7.66 3.65 8.32 5.3 9 7 C10.65 6.67 12.3 6.34 14 6 C14.33 6.66 14.66 7.32 15 8 C12.25494537 9.37252731 9.99672588 9.13229255 6.9375 9.125 C5.31134766 9.12886719 5.31134766 9.12886719 3.65234375 9.1328125 C1 9 1 9 0 8 C-0.14115161 5.32941149 -0.04247107 2.67567762 0 0 Z " fill="#D96028" transform="translate(163,17)"/>
<path d="M0 0 C2.97 0 5.94 0 9 0 C9 2.83967231 8.59732819 5.23735711 8 8 C7.67 8 7.34 8 7 8 C7 6.02 7 4.04 7 2 C4.69 2.33 2.38 2.66 0 3 C0.57344937 5.86724686 0.8614515 6.8614515 3 9 C1.35 8.67 -0.3 8.34 -2 8 C-2 6.02 -2 4.04 -2 2 C-1.34 2 -0.68 2 0 2 C0 1.34 0 0.68 0 0 Z " fill="#A24A31" transform="translate(166,16)"/>
<path d="M0 0 C0 3.63 0 7.26 0 11 C-3.16717283 9.41641358 -4.73268318 8.54736301 -6.3125 5.3125 C-6.539375 4.549375 -6.76625 3.78625 -7 3 C-6.34 3 -5.68 3 -5 3 C-4.67 2.34 -4.34 1.68 -4 1 C-1 0 -1 0 0 0 Z " fill="#F06006" transform="translate(199,68)"/>
<path d="M0 0 C2.64 0 5.28 0 8 0 C7.47731534 2.76276177 6.89130413 5.3260876 6 8 C4.125 7.75 4.125 7.75 2 7 C0.27898465 4.41847698 0 3.15081975 0 0 Z " fill="#9C472D" transform="translate(184,17)"/>
<path d="M0 0 C0.66 0.33 1.32 0.66 2 1 C2.33 6.94 2.66 12.88 3 19 C1.68 18.67 0.36 18.34 -1 18 C-0.505 9.09 -0.505 9.09 0 0 Z " fill="#1F2636" transform="translate(253,31)"/>
<path d="M0 0 C1 3 1 3 0 6 C0.66 6 1.32 6 2 6 C3.20272819 8.40545638 3.10071472 9.94996953 3.0625 12.625 C3.05347656 13.44226563 3.04445312 14.25953125 3.03515625 15.1015625 C3.02355469 15.72804687 3.01195312 16.35453125 3 17 C1.68 16.34 0.36 15.68 -1 15 C-1.02693575 12.87506859 -1.04636628 10.75004088 -1.0625 8.625 C-1.07410156 7.44164062 -1.08570313 6.25828125 -1.09765625 5.0390625 C-1 2 -1 2 0 0 Z " fill="#3D3E91" transform="translate(155,160)"/>
<path d="M0 0 C0.99 0.33 1.98 0.66 3 1 C3 2.65 3 4.3 3 6 C2.34 6 1.68 6 1 6 C1 6.66 1 7.32 1 8 C2.98 8 4.96 8 7 8 C7 8.33 7 8.66 7 9 C4.03 9 1.06 9 -2 9 C-2.25 3.375 -2.25 3.375 0 0 Z " fill="#232471" transform="translate(117,108)"/>
<path d="M0 0 C0.82757813 0.23009766 0.82757813 0.23009766 1.671875 0.46484375 C4.20317383 1.04670271 6.66441972 1.32435445 9.25 1.5625 C10.14203125 1.64628906 11.0340625 1.73007812 11.953125 1.81640625 C12.62859375 1.87699219 13.3040625 1.93757813 14 2 C14 1.34 14 0.68 14 0 C15.65 0 17.3 0 19 0 C19 0.99 19 1.98 19 3 C12.4 3 5.8 3 -1 3 C-0.67 2.01 -0.34 1.02 0 0 Z " fill="#172238" transform="translate(220,62)"/>
<path d="M0 0 C-1.38081223 4.1424367 -3.59825558 5.32203099 -7 8 C-7 7.34 -7 6.68 -7 6 C-7.66 6 -8.32 6 -9 6 C-8.75 4.125 -8.75 4.125 -8 2 C-5.06004981 -0.02755186 -3.72295997 0 0 0 Z " fill="#B7C7EB" transform="translate(212,22)"/>
<path d="M0 0 C0.33 0.99 0.66 1.98 1 3 C0 4 0 4 -1.76586914 4.11352539 C-2.51473389 4.10828857 -3.26359863 4.10305176 -4.03515625 4.09765625 C-4.84404297 4.09443359 -5.65292969 4.09121094 -6.48632812 4.08789062 C-7.33646484 4.07951172 -8.18660156 4.07113281 -9.0625 4.0625 C-9.91650391 4.05798828 -10.77050781 4.05347656 -11.65039062 4.04882812 C-13.76695663 4.03700373 -15.88348685 4.01906769 -18 4 C-17.67 3.34 -17.34 2.68 -17 2 C-13.37 2.33 -9.74 2.66 -6 3 C-6 2.34 -6 1.68 -6 1 C-4.02 0.67 -2.04 0.34 0 0 Z " fill="#C1D1F6" transform="translate(238,12)"/>
<path d="M0 0 C2 1 2 1 2 1 Z M-5 1 C-2.69 1.33 -0.38 1.66 2 2 C1.67 4.31 1.34 6.62 1 9 C-1.66735273 6.51047079 -3.55746343 4.36591866 -5 1 Z " fill="#EE6412" transform="translate(187,56)"/>
<path d="M0 0 C2.31 0.66 4.62 1.32 7 2 C7.33 4.31 7.66 6.62 8 9 C7.01 9 6.02 9 5 9 C3.35 6.03 1.7 3.06 0 0 Z " fill="#EB6A1A" transform="translate(175,47)"/>
<path d="M0 0 C0.66 0 1.32 0 2 0 C2.33 1.65 2.66 3.3 3 5 C3 3.35 3 1.7 3 0 C3.99 0.33 4.98 0.66 6 1 C5.67 2.65 5.34 4.3 5 6 C3.125 6.625 3.125 6.625 1 7 C0.34 6.34 -0.32 5.68 -1 5 C-0.625 2.375 -0.625 2.375 0 0 Z " fill="#722E27" transform="translate(171,18)"/>
<path d="M0 0 C1.65 0 3.3 0 5 0 C4.01 0.495 4.01 0.495 3 1 C3 1.99 3 2.98 3 4 C3.66 4.33 4.32 4.66 5 5 C3.68799596 6.35432675 2.35368596 7.68733482 1 9 C0.67 9 0.34 9 0 9 C0 6.03 0 3.06 0 0 Z " fill="#403D7E" transform="translate(6,168)"/>
<path d="M0 0 C1.32 0.66 2.64 1.32 4 2 C2.68 5.3 1.36 8.6 0 12 C-0.66 11.67 -1.32 11.34 -2 11 C-1.34 7.37 -0.68 3.74 0 0 Z " fill="#3A3781" transform="translate(147,135)"/>
<path d="M0 0 C2 1 4 2 6 3 C6 3.66 6 4.32 6 5 C6.66 5 7.32 5 8 5 C7.67 6.32 7.34 7.64 7 9 C6.01 8.67 5.02 8.34 4 8 C3.855625 7.360625 3.71125 6.72125 3.5625 6.0625 C3.19895007 3.79688294 3.19895007 3.79688294 0.9375 2.75 C0.298125 2.5025 -0.34125 2.255 -1 2 C-0.67 1.34 -0.34 0.68 0 0 Z " fill="#52649C" transform="translate(211,54)"/>
<path d="M0 0 C0.33 0.99 0.66 1.98 1 3 C-1.17424117 5.50037734 -2.73045798 6.43628586 -6 7 C-5.37162381 3.35541809 -4.14650034 0 0 0 Z " fill="#C1D1F6" transform="translate(218,14)"/>
<path d="M0 0 C0.433125 0.9590625 0.433125 0.9590625 0.875 1.9375 C1.82823451 4.15206079 1.82823451 4.15206079 4 5 C4.33 4.34 4.66 3.68 5 3 C4.67 4.65 4.34 6.3 4 8 C1.53199953 6.84826645 -0.04783565 5.95216435 -2 4 C-1 1 -1 1 0 0 Z " fill="#657293" transform="translate(214,58)"/>
<path d="M0 0 C0.55582752 1.95436127 1.09428713 3.91366982 1.625 5.875 C1.92664063 6.96554688 2.22828125 8.05609375 2.5390625 9.1796875 C2.69117187 10.11039063 2.84328125 11.04109375 3 12 C2.34 12.66 1.68 13.32 1 14 C-0.13764351 9.73383684 -1 6.43513689 -1 2 C-1.66 1.67 -2.32 1.34 -3 1 C-1 0 -1 0 0 0 Z " fill="#262270" transform="translate(113,96)"/>
<path d="M0 0 C0.1546875 0.86625 0.1546875 0.86625 0.3125 1.75 C0.88521263 4.11051916 0.88521263 4.11051916 2.625 6.0625 C3.07875 6.701875 3.5325 7.34125 4 8 C3.67 8.99 3.34 9.98 3 11 C1.02 8.36 -0.96 5.72 -3 3 C-2.01 2.01 -1.02 1.02 0 0 Z " fill="#E76F26" transform="translate(171,35)"/>
<path d="M0 0 C3.63 0 7.26 0 11 0 C11 0.33 11 0.66 11 1 C8.36 1 5.72 1 3 1 C2.34 2.65 1.68 4.3 1 6 C0.67 6 0.34 6 0 6 C0 4.02 0 2.04 0 0 Z " fill="#27276A" transform="translate(115,66)"/>
<path d="M0 0 C2.31 0 4.62 0 7 0 C5.625 2 5.625 2 4 4 C3.34 4 2.68 4 2 4 C1.67 4.66 1.34 5.32 1 6 C0.67 4.02 0.34 2.04 0 0 Z " fill="#B9C3DC" transform="translate(239,61)"/>
<path d="M0 0 C2 2 2 2 3 5 C3.99 5.33 4.98 5.66 6 6 C6 6.66 6 7.32 6 8 C3.03 7.505 3.03 7.505 0 7 C0 4.69 0 2.38 0 0 Z " fill="#3C3C77" transform="translate(204,74)"/>
<path d="M0 0 C1.32 0 2.64 0 4 0 C4.33 1.65 4.66 3.3 5 5 C3.35 4.67 1.7 4.34 0 4 C0 2.68 0 1.36 0 0 Z " fill="#CD6632" transform="translate(166,19)"/>
<path d="M0 0 C0.99 0.99 1.98 1.98 3 3 C2.34 4.32 1.68 5.64 1 7 C0.67 6.01 0.34 5.02 0 4 C-0.66 4 -1.32 4 -2 4 C-2 3.01 -2 2.02 -2 1 C-1.34 0.67 -0.68 0.34 0 0 Z " fill="#57699E" transform="translate(240,14)"/>
<path d="M0 0 C0.99 1.32 1.98 2.64 3 4 C2.34 5.32 1.68 6.64 1 8 C-2 4.25 -2 4.25 -2 2 C-1.34 2 -0.68 2 0 2 C0 1.34 0 0.68 0 0 Z " fill="#EC6A1C" transform="translate(194,69)"/>
<path d="M0 0 C2 2 2 2 2 6 C1.34 6 0.68 6 0 6 C-0.33 6.99 -0.66 7.98 -1 9 C-1.09765625 2.84765625 -1.09765625 2.84765625 -1 1 C-0.67 0.67 -0.34 0.34 0 0 Z " fill="#595188" transform="translate(7,9)"/>
<path d="M0 0 C0 3 0 3 -2 6 C-2 6.66 -2 7.32 -2 8 C-2.66 8 -3.32 8 -4 8 C-4.33 6.68 -4.66 5.36 -5 4 C-3.35 2.68 -1.7 1.36 0 0 Z " fill="#7185BE" transform="translate(213,22)"/>
</svg>
